<svg height="512pt" viewBox="0 -19 512 511" width="512pt" xmlns="http://www.w3.org/2000/svg"><path d="m364.5.5c-39.964844 0-79.421875 16.128906-108.496094 43.785156-29.078125-27.65625-68.535156-43.785156-108.503906-43.785156-82.710938 0-147.5 64.789062-147.5 147.5 0 96.671875 111.4375 203.085938 246.066406 322.136719 2.835938 2.507812 6.386719 3.761719 9.9375 3.761719 3.550782 0 7.097656-1.253907 9.9375-3.765626 134.621094-119.054687 246.058594-225.46875 246.058594-322.132812 0-82.710938-64.789062-147.5-147.5-147.5zm-108.496094 438.359375c-120.28125-106.777344-226.003906-209.046875-226.003906-290.859375 0-65.886719 51.613281-117.5 117.5-117.5 36.234375 0 73.421875 17.355469 97.050781 45.292969 2.847657 3.371093 7.039063 5.3125 11.453125 5.3125 4.414063 0 8.601563-1.941407 11.453125-5.3125 23.625-27.9375 60.8125-45.292969 97.042969-45.292969 65.886719 0 117.5 51.613281 117.5 117.5 0 81.804688-105.71875 184.078125-225.996094 290.859375zm0 0"/></svg>