<svg id="Capa_1" enable-background="new 0 0 512 512" height="512" viewBox="0 0 512 512" width="512" xmlns="http://www.w3.org/2000/svg"><g><path d="m413.256 285.82h-58.714c54.809-59.136 57.531-141.835 55.913-176.419-.279-5.974-3.976-11.063-9.646-13.284-5.762-2.259-12.308-.935-16.678 3.369l-54.246 53.418c-2.951 2.906-2.987 7.654-.081 10.606 2.906 2.95 7.654 2.986 10.606.081l54.245-53.418c.092-.09.175-.172.382-.151.187.004.351.073.437.129 1.618 34.703-1.317 120.58-62.256 175.669h-38.16c.658-1.377 1.291-2.764 1.919-4.153 14.724-14.862 42.389-45.279 60.713-80.668 1.904-3.678.467-8.204-3.212-10.108-3.677-1.905-8.203-.469-10.108 3.212-9.812 18.95-22.708 36.641-34.595 51.001 4.324-17.102 6.56-34.646 6.56-52.189 0-68.102-32.716-151.434-46.782-184.101-2.307-5.355-7.626-8.814-13.553-8.814s-11.246 3.459-13.552 8.813c-14.066 32.667-46.783 116.001-46.783 184.101 0 17.542 2.237 35.087 6.56 52.189-11.886-14.36-24.782-32.05-34.595-51-1.905-3.679-6.433-5.115-10.108-3.212-3.679 1.904-5.116 6.431-3.212 10.108 18.324 35.389 45.99 65.806 60.713 80.668.628 1.389 1.261 2.776 1.919 4.153h-38.161c-60.924-55.075-63.872-140.922-62.255-175.67.087-.056.25-.124.436-.128.189-.023.29.062.381.151l54.325 53.495c2.95 2.905 7.699 2.87 10.606-.081 2.906-2.952 2.87-7.7-.081-10.606l-54.326-53.495c-4.369-4.303-10.917-5.627-16.677-3.369-5.671 2.221-9.367 7.311-9.646 13.283-1.618 34.585 1.104 117.285 55.913 176.42h-58.713c-15.962 0-28.947 12.985-28.947 28.946 0 15.962 12.985 28.947 28.947 28.947h5.736l33.575 143.978c3.337 14.313 15.932 24.309 30.629 24.309h174.633c14.696 0 27.292-9.996 30.629-24.309l33.575-143.978h5.736c15.962 0 28.947-12.985 28.947-28.947-.001-15.96-12.986-28.946-28.948-28.946zm-157.256-270.55c13.818 32.171 45.334 112.688 45.334 177.645 0 39.701-12.065 71.873-23.027 92.906h-14.807v-145.833c0-4.143-3.357-7.5-7.5-7.5s-7.5 3.357-7.5 7.5v145.832h-14.807c-10.962-21.034-23.028-53.206-23.028-92.906 0-64.953 31.516-145.474 45.335-177.644zm157.256 313.444h-234.755c-4.143 0-7.5 3.357-7.5 7.5s3.357 7.5 7.5 7.5h213.618l-32.781 140.571c-1.746 7.486-8.334 12.715-16.021 12.715h-174.633c-7.688 0-14.275-5.229-16.021-12.715l-32.781-140.571h23.56c4.143 0 7.5-3.357 7.5-7.5s-3.357-7.5-7.5-7.5h-44.698c-7.69 0-13.947-6.257-13.947-13.947s6.257-13.946 13.947-13.946h314.512c7.69 0 13.947 6.256 13.947 13.946s-6.257 13.947-13.947 13.947z"/></g></svg>